<svg id="visual" viewBox="0 0 900 600" width="900" height="600" xmlns="http://www.w3.org/2000/svg" xmlns:xlink="http://www.w3.org/1999/xlink" version="1.1"><path d="M0 37L25 35C50 33 100 29 150 29C200 29 250 33 300 36C350 39 400 41 450 41C500 41 550 39 600 41C650 43 700 49 750 47C800 45 850 35 875 30L900 25L900 0L875 0C850 0 800 0 750 0C700 0 650 0 600 0C550 0 500 0 450 0C400 0 350 0 300 0C250 0 200 0 150 0C100 0 50 0 25 0L0 0Z" fill="#162542"></path><path d="M0 97L25 94C50 91 100 85 150 82C200 79 250 79 300 88C350 97 400 115 450 116C500 117 550 101 600 96C650 91 700 97 750 99C800 101 850 99 875 98L900 97L900 23L875 28C850 33 800 43 750 45C700 47 650 41 600 39C550 37 500 39 450 39C400 39 350 37 300 34C250 31 200 27 150 27C100 27 50 31 25 33L0 35Z" fill="#073b81"></path><path d="M0 253L25 240C50 227 100 201 150 198C200 195 250 215 300 224C350 233 400 231 450 226C500 221 550 213 600 216C650 219 700 233 750 245C800 257 850 267 875 272L900 277L900 95L875 96C850 97 800 99 750 97C700 95 650 89 600 94C550 99 500 115 450 114C400 113 350 95 300 86C250 77 200 77 150 80C100 83 50 89 25 92L0 95Z" fill="#004fc3"></path><path d="M0 283L25 277C50 271 100 259 150 259C200 259 250 271 300 273C350 275 400 267 450 262C500 257 550 255 600 258C650 261 700 269 750 282C800 295 850 313 875 322L900 331L900 275L875 270C850 265 800 255 750 243C700 231 650 217 600 214C550 211 500 219 450 224C400 229 350 231 300 222C250 213 200 193 150 196C100 199 50 225 25 238L0 251Z" fill="#0f5df9"></path><path d="M0 445L25 446C50 447 100 449 150 444C200 439 250 427 300 420C350 413 400 411 450 416C500 421 550 433 600 434C650 435 700 425 750 424C800 423 850 431 875 435L900 439L900 329L875 320C850 311 800 293 750 280C700 267 650 259 600 256C550 253 500 255 450 260C400 265 350 273 300 271C250 269 200 257 150 257C100 257 50 269 25 275L0 281Z" fill="#0f5df9"></path><path d="M0 493L25 495C50 497 100 501 150 497C200 493 250 481 300 476C350 471 400 473 450 477C500 481 550 487 600 483C650 479 700 465 750 464C800 463 850 475 875 481L900 487L900 437L875 433C850 429 800 421 750 422C700 423 650 433 600 432C550 431 500 419 450 414C400 409 350 411 300 418C250 425 200 437 150 442C100 447 50 445 25 444L0 443Z" fill="#004fc3"></path><path d="M0 553L25 557C50 561 100 569 150 571C200 573 250 569 300 568C350 567 400 569 450 566C500 563 550 555 600 553C650 551 700 555 750 556C800 557 850 555 875 554L900 553L900 485L875 479C850 473 800 461 750 462C700 463 650 477 600 481C550 485 500 479 450 475C400 471 350 469 300 474C250 479 200 491 150 495C100 499 50 495 25 493L0 491Z" fill="#073b81"></path><path d="M0 601L25 601C50 601 100 601 150 601C200 601 250 601 300 601C350 601 400 601 450 601C500 601 550 601 600 601C650 601 700 601 750 601C800 601 850 601 875 601L900 601L900 551L875 552C850 553 800 555 750 554C700 553 650 549 600 551C550 553 500 561 450 564C400 567 350 565 300 566C250 567 200 571 150 569C100 567 50 559 25 555L0 551Z" fill="#162542"></path></svg>