<?xml version="1.0" standalone="no"?>
<!DOCTYPE svg PUBLIC "-//W3C//DTD SVG 20010904//EN"
 "http://www.w3.org/TR/2001/REC-SVG-20010904/DTD/svg10.dtd">
<svg version="1.0" xmlns="http://www.w3.org/2000/svg"
 width="1211.000000pt" height="218.000000pt" viewBox="0 0 1211.000000 218.000000"
 preserveAspectRatio="xMidYMid meet">

<g transform="translate(0.000000,218.000000) scale(0.100000,-0.100000)"
fill="#0945f8" stroke="none">
<path d="M1712 2161 c-61 -21 -114 -68 -145 -126 -16 -31 -21 -65 -25 -149 -4
-100 -3 -109 12 -103 10 4 33 7 52 7 l34 0 0 93 c0 105 16 142 72 177 66 40
156 16 198 -52 16 -27 20 -51 20 -125 l0 -93 34 0 c19 0 42 -3 51 -7 16 -5 17
4 13 103 -3 86 -8 118 -25 150 -31 58 -93 110 -154 128 -65 20 -72 20 -137 -3z"/>
<path d="M41 1798 c-51 -27 -47 -108 5 -129 56 -21 113 28 98 85 -11 45 -61
66 -103 44z"/>
<path d="M198 1740 l4 -40 312 0 311 0 365 -365 365 -365 60 0 60 0 -405 405
-405 405 -335 0 -336 0 4 -40z"/>
<path d="M1560 1670 c-19 -19 -20 -33 -20 -233 l0 -212 119 -119 120 -120 125
120 125 119 0 217 c1 213 1 217 -21 232 -19 13 -58 16 -225 16 -190 0 -204 -1
-223 -20z m290 -95 c37 -19 60 -62 60 -112 0 -44 -30 -98 -59 -108 -18 -5 -21
-14 -21 -66 l0 -59 -40 0 -40 0 0 54 c0 49 -3 57 -40 94 -35 35 -40 45 -40 85
0 95 97 155 180 112z"/>
<path d="M171 1628 c-51 -27 -47 -108 5 -129 56 -21 113 28 98 85 -11 45 -61
66 -103 44z"/>
<path d="M320 1570 l0 -40 222 0 223 0 281 -281 280 -280 51 3 50 3 -306 317
-306 316 -247 1 -248 1 0 -40z"/>
<path d="M301 1458 c-51 -27 -47 -108 5 -129 56 -21 113 28 98 85 -11 45 -61
66 -103 44z"/>
<path d="M458 1400 l4 -40 118 0 118 0 193 -195 194 -195 53 0 54 0 -228 235
-227 235 -141 0 -142 0 4 -40z"/>
<path d="M507 1138 c-14 -18 -61 -99 -106 -179 l-81 -145 9 -180 10 -179 -81
-82 c-56 -56 -79 -86 -75 -97 4 -9 10 -16 14 -16 5 0 51 42 102 94 l94 95 -6
179 -6 180 72 55 c88 68 85 75 86 -151 1 -177 1 -177 -61 -255 l-38 -49 0
-187 c0 -132 4 -191 12 -199 8 -8 59 -12 165 -12 126 0 155 3 159 15 5 13 -51
118 -84 158 -10 11 -30 17 -59 17 l-43 0 0 63 0 62 124 87 c67 48 129 90 137
93 11 4 39 -39 103 -162 82 -155 89 -173 94 -238 2 -38 9 -76 14 -83 13 -16
274 -17 283 -1 16 24 -91 149 -128 149 -20 0 -34 14 -71 72 l-46 72 0 113 0
113 291 0 c272 0 290 -1 285 -17 -3 -10 -30 -100 -61 -200 -46 -149 -56 -191
-53 -240 l3 -58 143 -3 c165 -3 168 -1 104 83 -32 42 -44 50 -75 53 -20 2 -37
6 -37 9 0 10 142 348 150 356 4 5 31 -65 61 -155 37 -116 54 -183 56 -233 7
-126 -7 -115 148 -115 157 0 158 1 94 85 -33 44 -47 55 -69 55 -64 0 -60 -34
-60 485 0 376 -3 475 -13 483 -10 9 -43 -19 -142 -118 l-130 -130 -379 0 -380
0 -142 145 -141 145 -111 0 -111 0 -24 -32z"/>
<path d="M2790 590 l0 -570 290 0 290 0 0 75 0 75 -195 0 -195 0 0 495 0 495
-95 0 -95 0 0 -570z"/>
<path d="M10130 590 l0 -570 95 0 95 0 0 570 0 570 -95 0 -95 0 0 -570z"/>
<path d="M11300 1085 l0 -75 155 0 155 0 0 -495 0 -495 95 0 95 0 0 495 0 495
150 0 150 0 0 75 0 75 -400 0 -400 0 0 -75z"/>
<path d="M3700 927 c-121 -34 -218 -117 -270 -229 -116 -247 -20 -550 207
-656 52 -24 69 -27 173 -27 105 0 120 2 170 27 31 15 75 44 98 63 l42 37 0
-61 0 -61 95 0 95 0 0 455 0 456 -92 -3 -93 -3 -3 -61 -3 -61 -37 35 c-63 60
-150 94 -250 98 -52 2 -105 -1 -132 -9z m226 -162 c64 -19 127 -73 162 -139
24 -46 27 -62 27 -151 0 -84 -4 -107 -23 -146 -46 -94 -125 -150 -224 -157
-113 -9 -207 47 -257 151 -103 213 19 449 235 456 17 1 53 -6 80 -14z"/>
<path d="M4825 927 c-54 -18 -97 -41 -134 -73 l-31 -26 0 51 0 52 -92 -3 -93
-3 -3 -453 -2 -452 95 0 95 0 0 278 c0 312 6 354 62 411 42 43 74 58 135 67
69 9 149 -15 190 -58 65 -67 67 -82 71 -406 l4 -292 88 0 89 0 3 297 c3 284 4
300 25 339 26 49 83 101 121 111 15 4 52 8 82 8 30 0 67 -4 82 -8 38 -10 95
-62 121 -111 21 -39 22 -55 25 -339 l4 -297 89 0 89 0 0 309 c0 282 -2 315
-20 374 -27 88 -95 163 -182 203 -56 25 -74 29 -163 29 -90 0 -107 -3 -163
-29 -41 -19 -79 -47 -110 -81 l-47 -52 -45 50 c-65 73 -146 109 -258 113 -55
3 -102 -1 -127 -9z"/>
<path d="M6360 927 c-121 -34 -218 -117 -270 -229 -116 -247 -20 -550 207
-656 52 -24 69 -27 173 -27 105 0 120 2 170 27 31 15 75 44 98 63 l42 37 0
-61 0 -61 95 0 95 0 0 455 0 456 -92 -3 -93 -3 -3 -61 -3 -61 -37 35 c-63 60
-150 94 -250 98 -52 2 -105 -1 -132 -9z m226 -162 c64 -19 127 -73 162 -139
24 -46 27 -62 27 -151 0 -84 -4 -107 -23 -146 -46 -94 -125 -150 -224 -157
-113 -9 -207 47 -257 151 -103 213 19 449 235 456 17 1 53 -6 80 -14z"/>
<path d="M7320 924 c-172 -46 -262 -193 -204 -332 36 -87 104 -130 293 -186
183 -54 211 -72 211 -135 0 -50 -35 -85 -100 -101 -104 -25 -218 24 -235 101
l-7 29 -99 0 -98 0 6 -32 c17 -94 88 -179 186 -224 58 -27 70 -29 192 -29 111
0 137 3 176 22 203 94 227 333 45 437 -22 13 -108 45 -190 71 -112 35 -156 54
-178 75 -39 40 -38 86 3 126 29 27 35 29 114 29 98 0 128 -15 160 -83 l20 -41
93 -1 93 0 -7 38 c-15 88 -73 170 -147 208 -84 44 -223 56 -327 28z"/>
<path d="M8120 924 c-172 -46 -262 -193 -204 -332 36 -87 104 -130 293 -186
183 -54 211 -72 211 -135 0 -50 -35 -85 -100 -101 -104 -25 -218 24 -235 101
l-7 29 -99 0 -98 0 6 -32 c17 -94 88 -179 186 -224 58 -27 70 -29 192 -29 111
0 137 3 176 22 203 94 227 333 45 437 -22 13 -108 45 -190 71 -112 35 -156 54
-178 75 -39 40 -38 86 3 126 29 27 35 29 114 29 98 0 128 -15 160 -83 l20 -41
93 -1 93 0 -7 38 c-15 88 -73 170 -147 208 -84 44 -223 56 -327 28z"/>
<path d="M10787 925 c-228 -63 -364 -279 -329 -525 35 -244 204 -390 452 -390
245 0 424 151 461 389 38 252 -112 480 -349 530 -69 14 -175 13 -235 -4z m257
-183 c57 -32 109 -100 127 -165 6 -23 9 -80 7 -127 -3 -70 -9 -94 -33 -139
-52 -94 -133 -141 -245 -141 -107 0 -201 69 -237 175 -26 75 -23 205 6 271 64
147 235 204 375 126z"/>
<path d="M8722 598 c3 -322 4 -335 26 -382 36 -80 85 -132 159 -168 57 -28 79
-33 157 -36 106 -5 176 16 251 74 l45 34 0 -50 0 -50 90 0 90 0 0 455 0 455
-89 0 -89 0 -4 -292 c-3 -272 -5 -296 -24 -338 -85 -184 -362 -170 -418 21
-13 42 -16 108 -16 331 l0 278 -91 0 -90 0 3 -332z"/>
</g>
</svg>
